# xmcd
#
# Track frame offsets: 
#        150
#        22157
#        39897
#        61085
#        79017
#        97435
#        117720
#        142830
#        164105
#        180272
#        202120
#        215950
#
# Disc length: 3211 seconds
#
# Revision: 2
# Processed by: cddbd v1.5.2PL0 Copyright (c) Steve Scherf et al.
# Submitted via: ExactAudioCopy v0.99pb5
#
DISCID=b40c890c
DTITLE=Tad Robinson - One To Infinity
DYEAR=1900
DGENRE=Blues
TTITLE0=Empty Apartment Bles
TTITLE1=Coming Home
TTITLE2=At The End Of The Tunnel
TTITLE3=Eight Days A Week
TTITLE4=Truble In Mind
TTITLE5=Can't Print It Fast Enough
TTITLE6=One To Infinity
TTITLE7=Walking In The Sunshine
TTITLE8=Lonely Man
TTITLE9=Raining In New York
TTITLE10=Little Rascal
TTITLE11=Give Love A Chance
EXTD=
EXTT0=
EXTT1=
EXTT2=
EXTT3=
EXTT4=
EXTT5=
EXTT6=
EXTT7=
EXTT8=
EXTT9=
EXTT10=
EXTT11=
PLAYORDER=
